# xmcd
#
# Track frame offsets:
# 150
# 11465
# 34275
# 44670
# 68707
# 80062
# 93157
# 105490
# 121805
# 133597
# 147835
# 160802
# 187610
# 201112
# 222585
# 241415
# 263027
# 276447
# 295817
# 306342
#
# Disc length: 4214 seconds
#
#
# Revision: 1
# Processed by: cddbd v1.5.2PL0 Copyright (c) Steve Scherf et al.
# Submitted via: FreeRIP 2.51 
#
DISCID=23107414
DTITLE=Memphis Slim - Memphis Slim - The Blues Collection
DYEAR=1900
DGENRE=
TTITLE0=Strange, strange feelin'
TTITLE1=Lend me your love
TTITLE2=Little lonely girl
TTITLE3=Rock me woman
TTITLE4=(I feel like) ballin' the jack
TTITLE5=Only fools have fun
TTITLE6=Sassy mae
TTITLE7=This little woman
TTITLE8=A long time baby
TTITLE9=Easy blues
TTITLE10=I am the blues
TTITLE11=Freedom
TTITLE12=Everyday i have the blues
TTITLE13=Forty years or more
TTITLE14=Gamblers blues
TTITLE15=Strollin' thru the park
TTITLE16=Ramble this highway
TTITLE17=Gone again
TTITLE18=All by myself
TTITLE19=caledonia
EXTD=
EXTT0=
EXTT1=
EXTT2=
EXTT3=
EXTT4=
EXTT5=
EXTT6=
EXTT7=
EXTT8=
EXTT9=
EXTT10=
EXTT11=
EXTT12=
EXTT13=
EXTT14=
EXTT15=
EXTT16=
EXTT17=
EXTT18=
EXTT19=
PLAYORDER=
